<svg width="656" height="1102" viewBox="0 0 656 1102" fill="none" xmlns="http://www.w3.org/2000/svg">
<path d="M0.867799 1038.85C1.33468 1039.23 1.96916 1039.36 2.54379 1039.16C3.05856 1038.98 3.44164 1038.57 3.5853 1038.06C3.6691 1037.76 3.6691 1037.52 3.5853 1037.32C3.5015 1037.11 3.34587 1036.94 3.15433 1036.85C2.95082 1036.77 2.73533 1036.77 2.53182 1036.85C2.11282 1037.03 1.92128 1037.52 2.08888 1037.97C2.12479 1038.06 2.17268 1038.14 2.23253 1038.21C1.98114 1038.28 1.68185 1038.23 1.46637 1038.06C1.0354 1037.7 1.02343 1037.23 1.02343 1036.5V509.375C1.02343 508.641 1.04737 508.173 1.46637 507.819C1.66988 507.655 1.96916 507.592 2.23253 507.668C2.17268 507.744 2.12479 507.819 2.08888 507.908C1.92128 508.338 2.12479 508.844 2.53182 509.021C2.73533 509.109 2.95082 509.109 3.15433 509.021C3.35784 508.932 3.51347 508.768 3.5853 508.553C3.65713 508.35 3.65713 508.11 3.5853 507.819C3.44164 507.288 3.05856 506.896 2.55576 506.719C2.37619 506.656 2.18465 506.631 1.99311 506.631C1.59805 506.631 1.19102 506.77 0.879768 507.023C0.0657157 507.693 0.0657166 508.629 0.0657166 509.375L0.0657175 1036.5C0.0657175 1037.25 0.0657157 1038.18 0.879768 1038.85H0.867799ZM0.867799 496.971C1.17905 497.236 1.57411 497.363 1.98114 497.363C2.17268 497.363 2.36422 497.337 2.54379 497.274C3.05856 497.097 3.42967 496.693 3.57333 496.174C3.65713 495.883 3.65713 495.643 3.57333 495.441C3.48953 495.226 3.3339 495.061 3.14236 494.973C2.93884 494.884 2.72336 494.884 2.51985 494.973C2.11282 495.15 1.90931 495.643 2.07691 496.086C2.11282 496.174 2.16071 496.263 2.22056 496.326C1.96917 496.402 1.66988 496.351 1.4544 496.174C1.02343 495.82 1.01145 495.352 1.01145 494.619V64.8958C1.01145 64.1625 1.0354 63.6946 1.4544 63.3406C1.65791 63.1636 1.95719 63.113 2.22056 63.1889C2.16071 63.2647 2.11282 63.3406 2.07691 63.4291C1.90931 63.8716 2.11282 64.3648 2.51985 64.5418C2.71139 64.6303 2.93884 64.6303 3.14236 64.5418C3.3339 64.4533 3.48953 64.2889 3.57333 64.074C3.64515 63.8716 3.64515 63.6314 3.57333 63.3406C3.42967 62.8095 3.04659 62.4176 2.53182 62.2406C1.96916 62.0509 1.32271 62.1647 0.855827 62.544C0.0417746 63.2142 0.0417735 64.1498 0.0417735 64.8958V494.632C0.0417735 495.378 0.0417746 496.313 0.855827 496.983L0.867799 496.971ZM655.175 507.023C654.863 506.757 654.456 506.631 654.061 506.631C653.87 506.631 653.678 506.656 653.499 506.719C652.984 506.896 652.601 507.301 652.457 507.819C652.373 508.11 652.373 508.35 652.457 508.553C652.541 508.768 652.697 508.932 652.888 509.021C653.092 509.109 653.307 509.109 653.511 509.021C653.918 508.844 654.121 508.35 653.954 507.908C653.918 507.819 653.87 507.731 653.81 507.668C654.061 507.592 654.361 507.642 654.576 507.819C655.007 508.173 655.031 508.641 655.031 509.375V1036.5C655.031 1037.23 655.007 1037.7 654.576 1038.06C654.373 1038.22 654.073 1038.28 653.81 1038.21C653.87 1038.14 653.918 1038.06 653.954 1037.97C654.121 1037.52 653.918 1037.03 653.511 1036.85C653.307 1036.77 653.092 1036.77 652.888 1036.85C652.685 1036.94 652.541 1037.11 652.457 1037.32C652.385 1037.52 652.385 1037.76 652.457 1038.06C652.601 1038.59 652.984 1038.98 653.499 1039.16C654.061 1039.36 654.708 1039.23 655.175 1038.85C655.989 1038.18 655.989 1037.25 655.989 1036.5V509.375C655.989 508.629 655.989 507.706 655.175 507.023ZM1.76565 503.811C2.71139 503.811 3.47756 503.002 3.47756 502.003C3.47756 501.004 2.71139 500.195 1.76565 500.195C0.819914 500.195 0.0537452 501.004 0.0537452 502.003C0.0537452 503.002 0.819914 503.811 1.76565 503.811ZM1.76565 501.207C2.18465 501.207 2.51985 501.561 2.51985 502.003C2.51985 502.446 2.18465 502.8 1.76565 502.8C1.34665 502.8 1.01145 502.446 1.01145 502.003C1.01145 501.561 1.34665 501.207 1.76565 501.207ZM647.573 8.2628C647.513 8.45246 647.549 8.65477 647.681 8.79385C647.812 8.93294 648.016 8.98351 648.195 8.90765C649.488 8.38924 651.14 8.50304 652.613 9.19846C652.709 9.24904 652.804 9.26169 652.9 9.26169C653.068 9.26169 653.247 9.19846 653.379 9.05938C653.571 8.86972 653.642 8.60419 653.571 8.31338C653.427 7.71911 653.14 7.18805 652.733 6.73286C653.295 5.80984 653.63 4.38105 653.571 3.05342C653.559 2.80054 653.367 2.58559 653.116 2.57295C651.871 2.49708 650.506 2.85112 649.632 3.45804C649.201 3.01549 648.698 2.72468 648.136 2.57295C647.872 2.50973 647.597 2.57295 647.429 2.77525C647.238 2.9902 647.19 3.30631 647.31 3.58448C647.968 5.1397 648.064 6.88459 647.585 8.25015L647.573 8.2628ZM649.201 4.46957C649.285 4.57072 649.404 4.64658 649.536 4.64658C649.668 4.64658 649.788 4.60865 649.895 4.52014C650.446 4.00173 651.559 3.63505 652.613 3.59712C652.577 4.7098 652.23 5.8857 651.739 6.46733C651.655 6.56849 651.607 6.70757 651.619 6.84666C651.619 6.98574 651.691 7.11219 651.787 7.2007C652.074 7.45358 652.302 7.73175 652.445 8.04785C651.631 7.73175 650.793 7.58002 649.967 7.58002C649.536 7.58002 649.117 7.61795 648.71 7.70646C648.95 6.46733 648.842 5.08913 648.387 3.77414C648.686 3.93851 648.95 4.1661 649.189 4.48221L649.201 4.46957ZM655.163 62.5314C654.696 62.152 654.061 62.0256 653.487 62.2279C652.972 62.4049 652.589 62.8095 652.445 63.3279C652.361 63.6188 652.361 63.859 652.445 64.0613C652.529 64.2763 652.685 64.4406 652.876 64.5291C653.08 64.6177 653.295 64.6177 653.499 64.5291C653.918 64.3521 654.109 63.859 653.942 63.4165C653.906 63.328 653.858 63.2394 653.798 63.1762C654.049 63.1004 654.349 63.1509 654.564 63.3279C654.995 63.682 655.019 64.1498 655.019 64.8832V494.619C655.019 495.352 654.995 495.82 654.564 496.174C654.361 496.351 654.061 496.402 653.798 496.326C653.858 496.25 653.906 496.174 653.942 496.086C654.109 495.643 653.906 495.15 653.499 494.973C653.295 494.884 653.08 494.884 652.876 494.973C652.673 495.061 652.529 495.226 652.445 495.441C652.373 495.643 652.373 495.883 652.445 496.174C652.589 496.705 652.972 497.097 653.487 497.274C653.666 497.337 653.858 497.363 654.049 497.363C654.445 497.363 654.852 497.224 655.163 496.971C655.977 496.301 655.977 495.365 655.977 494.619V64.8958C655.977 64.1498 655.977 63.2142 655.163 62.544V62.5314ZM2.6635 9.07202C2.79519 9.19847 2.96279 9.27433 3.14236 9.27433C3.23813 9.27433 3.3339 9.24904 3.42967 9.21111C4.90215 8.51568 6.55419 8.41453 7.8471 8.9203C8.02667 8.98352 8.21822 8.94558 8.3499 8.8065C8.48159 8.66741 8.52947 8.45246 8.45764 8.27544C7.96682 6.90988 8.07456 5.16499 8.73299 3.60976C8.8527 3.34424 8.79284 3.02814 8.61327 2.80054C8.44567 2.59824 8.1823 2.52237 7.90696 2.59824C7.34431 2.74997 6.84151 3.04078 6.41054 3.48332C5.53663 2.88905 4.18386 2.53502 2.92687 2.59824C2.68744 2.61088 2.48393 2.81318 2.47196 3.07871C2.41211 4.3937 2.7473 5.82248 3.30996 6.75815C2.90293 7.21334 2.61562 7.74439 2.47196 8.33866C2.41211 8.61683 2.47196 8.895 2.67547 9.08467L2.6635 9.07202ZM6.14717 4.53278C6.24294 4.62129 6.37463 4.67187 6.50631 4.65922C6.638 4.65922 6.75771 4.58336 6.84151 4.48221C7.08093 4.17875 7.34431 3.93851 7.64359 3.77414C7.20065 5.08913 7.09291 6.46733 7.32036 7.70646C6.91334 7.61795 6.49434 7.58002 6.06337 7.58002C5.24932 7.58002 4.41132 7.73175 3.5853 8.04785C3.74093 7.73175 3.95641 7.45358 4.24372 7.2007C4.33949 7.11219 4.41132 6.98574 4.41132 6.84666C4.41132 6.70757 4.37541 6.58113 4.29161 6.46733C3.80078 5.8857 3.45362 4.7098 3.4177 3.59712C4.47118 3.63505 5.58451 4.00173 6.1352 4.52014L6.14717 4.53278ZM612.365 5.67076L613 5.21557C615.178 3.67299 617.142 2.35799 619.165 1.90281C623.223 0.992429 626.408 3.58448 627.329 6.50527C628.323 9.64101 626.623 12.271 624.612 13.371C622.912 14.3193 620.482 14.4584 618.77 12.056C617.585 10.387 617.908 8.02256 619.476 6.7708C620.29 6.12595 621.368 5.9995 622.301 6.45469C622.996 6.79608 623.498 7.42829 623.642 8.16165C623.726 8.61683 623.666 9.05938 623.451 9.46399C623.307 9.40077 623.127 9.40077 622.972 9.46399C622.792 9.52722 622.637 9.6663 622.553 9.84332C622.469 10.033 622.445 10.2353 622.505 10.4249C622.565 10.6146 622.696 10.779 622.864 10.8675C623.044 10.9686 623.235 10.9813 623.415 10.9181C623.606 10.8548 623.738 10.7031 623.87 10.5514C624.492 9.84331 624.744 8.90765 624.576 7.97199C624.384 6.92253 623.678 6.01215 622.696 5.54431C621.451 4.9374 620.003 5.10177 618.902 5.97421C617.932 6.7455 617.309 7.85819 617.142 9.13524C616.974 10.3997 617.285 11.6641 618.004 12.6756C619.105 14.2182 620.649 15.0274 622.289 15.0274C623.199 15.0274 624.145 14.7745 625.055 14.2688C625.869 13.8136 626.647 13.1434 627.258 12.3089C627.258 12.9158 627.293 13.5228 627.365 14.1297V14.1676C627.389 14.3573 627.413 14.5343 627.449 14.7113C628.06 18.454 629.867 22.0449 632.525 24.8013C635.147 27.6209 638.535 29.5302 642.078 30.1751C642.246 30.2003 642.413 30.2256 642.581 30.2509H642.617C643.191 30.3268 643.766 30.3647 644.341 30.3647C643.551 31.0096 642.916 31.8314 642.485 32.6912C641.132 35.4097 641.731 38.3305 644.005 40.1386C644.975 40.9099 646.172 41.2387 647.357 41.049C648.555 40.872 649.62 40.2018 650.338 39.1903C651.164 38.0397 651.32 36.4971 650.745 35.1821C650.29 34.1453 649.44 33.412 648.447 33.197C647.573 33.0073 646.675 33.2855 645.993 33.9557C645.861 34.0947 645.717 34.2338 645.658 34.4235C645.538 34.8281 645.741 35.258 646.124 35.3844C646.316 35.4477 646.507 35.435 646.675 35.3339C646.843 35.2454 646.974 35.081 647.034 34.8913C647.082 34.7143 647.082 34.5373 647.034 34.3856C647.405 34.1706 647.836 34.0947 648.267 34.1833C648.962 34.3223 649.56 34.8534 649.883 35.5994C650.314 36.573 650.195 37.711 649.584 38.5708C649.01 39.38 648.172 39.8984 647.238 40.0375C646.28 40.1766 645.346 39.9237 644.592 39.3168C642.318 37.5087 642.461 34.9419 643.347 33.1464C644.401 31.0349 646.879 29.2268 649.859 30.2889C652.613 31.2625 655.079 34.6005 654.217 38.8995C653.786 41.049 652.541 43.1226 651.081 45.4112L650.65 46.0814C648.483 49.4447 645.215 54.5403 648.423 58.2703C649.333 59.3324 650.554 59.9267 651.799 59.9267C651.859 59.9267 651.93 59.9267 651.99 59.9267C652.876 59.8888 654.157 59.5094 655.235 57.9921C656.456 56.2852 656.132 53.8449 654.504 52.5552C653.858 52.0368 652.984 51.8092 652.194 51.9609C651.523 52.0747 650.961 52.4414 650.614 52.9977C650.41 53.3138 650.29 53.6931 650.278 54.0851C650.266 54.4265 650.302 54.6541 650.422 54.8311C650.65 55.1725 651.093 55.2736 651.428 55.0334C651.763 54.7932 651.847 54.3253 651.619 53.9713C651.547 53.8575 651.452 53.769 651.332 53.7184C651.356 53.6678 651.38 53.6299 651.404 53.5793C651.667 53.1621 652.062 53.023 652.35 52.9724C652.888 52.8713 653.499 53.0356 653.93 53.377C655.127 54.3253 655.366 56.1334 654.468 57.3979C653.786 58.3462 652.912 58.8772 651.942 58.9278C650.913 58.9784 649.883 58.4852 649.129 57.6002C646.424 54.4518 649.44 49.7608 651.44 46.663L651.871 45.9802C653.391 43.5905 654.684 41.4283 655.151 39.1145C656.12 34.2465 653.307 30.4406 650.159 29.3279C650.003 29.2773 649.836 29.2268 649.68 29.1762C650.266 28.898 650.841 28.5819 651.38 28.2026C654.528 26.0531 656.24 22.3736 655.881 18.593C655.761 17.3539 655.522 16.4183 655.079 15.4447C653.271 11.4744 648.77 9.76745 644.987 11.6008C646.723 7.61795 645.107 2.85112 641.348 0.941854C640.426 0.474022 639.528 0.221139 638.355 0.0946975C634.788 -0.29727 631.292 1.52348 629.257 4.84889C628.91 5.41787 628.598 6.02479 628.335 6.64435C628.299 6.47998 628.251 6.3156 628.191 6.15123C627.138 2.82583 623.546 -0.145539 618.925 0.878635C616.735 1.37176 614.688 2.73732 612.425 4.33048L611.779 4.78567C608.834 6.89724 604.392 10.0836 601.423 7.22598C600.585 6.4294 600.118 5.31672 600.166 4.25461C600.214 3.23044 600.717 2.30742 601.615 1.5867C602.812 0.638393 604.524 0.891277 605.422 2.15569C605.745 2.62352 605.901 3.25573 605.805 3.82471C605.757 4.12817 605.613 4.54543 605.23 4.8236C605.182 4.84889 605.146 4.87418 605.099 4.89947C605.039 4.78567 604.955 4.67187 604.859 4.596C604.703 4.48221 604.5 4.43163 604.308 4.48221C604.117 4.52014 603.949 4.63394 603.842 4.81096C603.614 5.16499 603.71 5.63283 604.033 5.87306C604.189 5.98686 604.404 6.03743 604.727 6.01215C605.099 5.9995 605.446 5.87306 605.757 5.65811C606.284 5.27879 606.631 4.68451 606.739 3.98909C606.87 3.14193 606.667 2.23155 606.176 1.54877C604.955 -0.158185 602.644 -0.512219 601.028 0.777482C599.592 1.91545 599.233 3.26837 599.197 4.20404C599.137 5.58225 599.711 6.96046 600.765 7.97199C604.308 11.3606 609.121 7.90877 612.305 5.62018L612.365 5.67076ZM633.219 24.0932C631.412 22.2093 630.023 19.9333 629.161 17.493C630.897 19.769 633.399 21.3242 636.188 20.9701C635.853 23.9162 637.325 26.5715 639.468 28.3922C637.158 27.4945 635.003 26.0151 633.219 24.1059V24.0932ZM630.095 5.44316C631.771 2.71203 634.524 1.09358 637.433 1.09358C637.72 1.09358 637.996 1.10623 638.283 1.14416C639.349 1.25796 640.127 1.48555 640.953 1.90281C644.281 3.59712 645.681 7.82026 644.089 11.3353C643.215 13.2572 641.42 14.4584 639.396 14.4837C639.385 14.4837 639.361 14.4837 639.349 14.4837C637.074 14.4837 634.632 12.6882 634.584 9.99504C634.56 8.88236 635.135 7.89612 636.08 7.42829C636.966 6.98574 638.02 7.39036 638.427 8.31338C638.499 8.46511 638.535 8.62948 638.547 8.79385C638.355 8.76856 638.163 8.8065 637.996 8.9203C637.804 9.04674 637.673 9.24904 637.613 9.47664C637.565 9.71687 637.601 9.95711 637.72 10.1594C637.84 10.3617 638.032 10.5135 638.247 10.564C638.475 10.6273 638.702 10.5767 638.894 10.4502C639.121 10.2985 639.253 10.033 639.349 9.79274C639.588 9.17318 639.564 8.47775 639.289 7.87083C638.642 6.44205 637.014 5.82249 635.661 6.50527C634.369 7.15012 633.59 8.49039 633.614 10.0077C633.662 13.2952 636.607 15.4826 639.337 15.4826H639.396C640.282 15.4826 641.132 15.2676 641.898 14.901C641.551 15.7102 641.36 16.6079 641.348 17.5436C641.324 20.4391 643.395 23.5875 646.531 23.6507C647.956 23.676 649.237 22.8541 649.847 21.4886C650.494 20.0598 649.907 18.3402 648.555 17.6574C647.98 17.3666 647.322 17.3539 646.735 17.5942C646.52 17.6827 646.256 17.8218 646.112 18.0746C645.993 18.2769 645.957 18.5172 646.005 18.7574C646.053 18.9977 646.184 19.1873 646.388 19.3264C646.783 19.5793 647.31 19.4528 647.561 19.0356C647.669 18.8586 647.705 18.6563 647.681 18.454C647.836 18.4666 647.992 18.5172 648.136 18.5804C648.567 18.7954 648.878 19.1747 649.045 19.6425C649.213 20.1103 649.177 20.6161 648.974 21.0713C648.531 22.0575 647.621 22.6518 646.591 22.6518C646.579 22.6518 646.555 22.6518 646.543 22.6518C643.97 22.6012 642.27 19.9839 642.294 17.5689C642.318 15.432 643.455 13.5354 645.274 12.6124C648.602 10.9307 652.601 12.4101 654.205 15.9251C654.6 16.7976 654.816 17.6195 654.923 18.7448C655.247 22.146 653.69 25.4588 650.853 27.3934C649.321 28.4428 647.525 29.0877 645.669 29.3026C642.665 29.6314 640.737 28.6957 638.81 26.306C637.493 24.6749 636.751 22.6265 637.218 20.4644C637.254 20.3 637.206 20.123 637.086 19.9965C636.966 19.8701 636.799 19.8322 636.643 19.8575C634.632 20.3379 632.728 19.5919 631.196 18.2517C629.185 16.4941 628.096 14.5469 628.215 11.7273C628.311 9.47663 628.945 7.2892 630.071 5.44316H630.095ZM654.277 500.208C653.331 500.208 652.565 501.017 652.565 502.016C652.565 503.015 653.331 503.824 654.277 503.824C655.223 503.824 655.989 503.015 655.989 502.016C655.989 501.017 655.223 500.208 654.277 500.208ZM654.277 502.812C653.858 502.812 653.523 502.458 653.523 502.016C653.523 501.573 653.858 501.219 654.277 501.219C654.696 501.219 655.031 501.573 655.031 502.016C655.031 502.458 654.696 502.812 654.277 502.812ZM596.06 1097.65C595.952 1097.61 595.821 1097.58 595.677 1097.58C595.569 1097.58 595.462 1097.6 595.354 1097.65C595.15 1097.74 595.007 1097.9 594.911 1098.1C594.827 1098.32 594.827 1098.54 594.911 1098.76C595.078 1099.19 595.545 1099.4 595.964 1099.23C596.048 1099.19 596.132 1099.14 596.192 1099.08C596.264 1099.35 596.216 1099.67 596.048 1099.89C595.713 1100.34 595.27 1100.35 594.576 1100.35H334.989C334.294 1100.35 333.851 1100.33 333.516 1099.89C333.349 1099.67 333.301 1099.35 333.372 1099.08C333.444 1099.14 333.516 1099.19 333.6 1099.23C333.791 1099.32 334.019 1099.32 334.222 1099.23C334.426 1099.14 334.57 1098.97 334.653 1098.76C334.821 1098.33 334.629 1097.82 334.21 1097.65C334.019 1097.57 333.791 1097.57 333.516 1097.65C333.013 1097.8 332.642 1098.2 332.475 1098.75C332.295 1099.34 332.403 1100.02 332.762 1100.52C333.396 1101.38 334.282 1101.38 334.989 1101.38H594.576C595.282 1101.38 596.168 1101.38 596.802 1100.52C597.161 1100.02 597.269 1099.35 597.09 1098.75C596.922 1098.2 596.539 1097.81 596.048 1097.65H596.06ZM594.588 0.0567643H335.001C334.294 0.0567643 333.42 0.0567652 332.774 0.916565C332.415 1.40969 332.295 2.07982 332.487 2.6741C332.654 3.21779 333.025 3.62241 333.528 3.77414C333.803 3.86265 334.031 3.86265 334.222 3.77414C334.641 3.59712 334.833 3.09136 334.665 2.66146C334.582 2.44651 334.426 2.28213 334.234 2.19362C334.031 2.10512 333.815 2.10512 333.612 2.19362C333.528 2.23156 333.444 2.28213 333.384 2.34535C333.313 2.06718 333.36 1.76372 333.528 1.53613C333.863 1.08094 334.306 1.0683 335.001 1.0683H594.588C595.282 1.0683 595.725 1.09359 596.06 1.53613C596.216 1.75108 596.276 2.06718 596.204 2.34535C596.144 2.28213 596.06 2.23156 595.976 2.19362C595.557 2.01661 595.09 2.23156 594.923 2.66146C594.839 2.87641 594.839 3.104 594.923 3.31895C595.007 3.5339 595.162 3.68563 595.366 3.77414C595.474 3.82472 595.581 3.83736 595.689 3.83736C595.833 3.83736 595.964 3.79943 596.072 3.77414C596.563 3.62241 596.946 3.23044 597.114 2.68674C597.293 2.09247 597.185 1.40969 596.826 0.916565C596.192 0.0567652 595.306 0.0567643 594.6 0.0567643H594.588ZM321.042 0.0567643H61.4429C60.7366 0.0567643 59.8507 0.0567652 59.2162 0.916565C58.8571 1.40969 58.7493 2.07983 58.9289 2.68674C59.0965 3.23044 59.4796 3.62241 59.9704 3.77414C60.0782 3.81207 60.2099 3.83736 60.3535 3.83736C60.4493 3.83736 60.557 3.82472 60.6648 3.77414C60.8563 3.68563 61.0119 3.52126 61.1077 3.31895C61.1915 3.104 61.1915 2.87641 61.1077 2.66146C60.9401 2.23156 60.4732 2.01661 60.0542 2.19362C59.9704 2.23156 59.8866 2.28213 59.8268 2.34535C59.7549 2.06718 59.8028 1.75108 59.9704 1.53613C60.3056 1.08094 60.7486 1.0683 61.4429 1.0683H321.03C321.724 1.0683 322.167 1.09359 322.502 1.53613C322.67 1.75108 322.718 2.06718 322.646 2.34535C322.574 2.28213 322.502 2.23156 322.419 2.19362C322.227 2.10512 322 2.10512 321.796 2.19362C321.593 2.28213 321.437 2.44651 321.365 2.66146C321.198 3.09136 321.389 3.59712 321.808 3.77414C322 3.85 322.227 3.86265 322.502 3.77414C323.005 3.62241 323.376 3.21779 323.544 2.6741C323.724 2.07982 323.616 1.39704 323.257 0.916565C322.622 0.0567652 321.736 0.0567643 321.03 0.0567643H321.042ZM328.021 1097.76C327.076 1097.76 326.309 1098.57 326.309 1099.57C326.309 1100.57 327.076 1101.38 328.021 1101.38C328.967 1101.38 329.733 1100.57 329.733 1099.57C329.733 1098.57 328.967 1097.76 328.021 1097.76ZM328.021 1100.37C327.602 1100.37 327.267 1100.01 327.267 1099.57C327.267 1099.13 327.602 1098.77 328.021 1098.77C328.44 1098.77 328.775 1099.13 328.775 1099.57C328.775 1100.01 328.44 1100.37 328.021 1100.37ZM322.514 1097.66C322.239 1097.57 322.012 1097.57 321.82 1097.66C321.401 1097.84 321.21 1098.34 321.377 1098.77C321.461 1098.99 321.617 1099.15 321.808 1099.24C322.012 1099.33 322.227 1099.33 322.431 1099.24C322.514 1099.2 322.598 1099.15 322.658 1099.09C322.73 1099.37 322.682 1099.67 322.514 1099.9C322.179 1100.35 321.736 1100.37 321.042 1100.37H61.4429C60.7486 1100.37 60.3056 1100.34 59.9704 1099.9C59.8148 1099.68 59.7549 1099.37 59.8268 1099.09C59.8986 1099.15 59.9704 1099.2 60.0542 1099.24C60.4613 1099.42 60.9401 1099.2 61.1077 1098.77C61.1915 1098.56 61.1915 1098.33 61.1077 1098.11C61.0239 1097.9 60.8683 1097.74 60.6648 1097.66C60.557 1097.61 60.4493 1097.6 60.3535 1097.6C60.2099 1097.6 60.0782 1097.63 59.9704 1097.66C59.4796 1097.81 59.0965 1098.22 58.9289 1098.76C58.7493 1099.35 58.8571 1100.04 59.2162 1100.53C59.8507 1101.39 60.7366 1101.39 61.4429 1101.39H321.03C321.736 1101.39 322.61 1101.39 323.257 1100.53C323.616 1100.04 323.736 1099.37 323.544 1098.76C323.376 1098.22 322.993 1097.81 322.502 1097.66H322.514ZM651.44 1046.36C651.104 1046.12 650.65 1046.22 650.434 1046.56C650.326 1046.73 650.278 1046.97 650.29 1047.31C650.302 1047.7 650.422 1048.07 650.626 1048.4C650.973 1048.95 651.547 1049.32 652.206 1049.43C652.996 1049.57 653.87 1049.35 654.516 1048.84C656.133 1047.55 656.456 1045.11 655.247 1043.4C654.169 1041.89 652.888 1041.51 652.002 1041.47C651.942 1041.47 651.871 1041.47 651.811 1041.47C650.566 1041.47 649.345 1042.06 648.435 1043.13C645.215 1046.86 648.495 1051.95 650.661 1055.31L651.092 1055.98C652.553 1058.29 653.786 1060.36 654.229 1062.5C655.091 1066.8 652.625 1070.15 649.871 1071.11C646.903 1072.16 644.412 1070.36 643.359 1068.25C642.473 1066.45 642.329 1063.89 644.604 1062.08C645.37 1061.47 646.304 1061.22 647.25 1061.36C648.195 1061.5 649.033 1062.02 649.596 1062.83C650.207 1063.68 650.326 1064.82 649.895 1065.8C649.572 1066.53 648.974 1067.06 648.279 1067.21C647.848 1067.3 647.417 1067.23 647.046 1067.01C647.106 1066.86 647.106 1066.68 647.046 1066.5C646.986 1066.3 646.855 1066.15 646.687 1066.06C646.519 1065.97 646.316 1065.95 646.136 1066.01C645.765 1066.15 645.55 1066.58 645.669 1066.97C645.729 1067.16 645.873 1067.31 646.005 1067.45C646.687 1068.12 647.573 1068.39 648.459 1068.21C649.453 1068.01 650.314 1067.26 650.757 1066.23C651.332 1064.91 651.176 1063.38 650.35 1062.22C649.62 1061.19 648.567 1060.54 647.369 1060.36C646.172 1060.18 644.975 1060.51 644.017 1061.27C641.743 1063.08 641.156 1066 642.497 1068.72C642.928 1069.58 643.562 1070.4 644.353 1071.04C643.778 1071.04 643.203 1071.08 642.629 1071.16H642.593C642.425 1071.18 642.258 1071.21 642.09 1071.25C638.547 1071.89 635.147 1073.8 632.537 1076.62C629.879 1079.38 628.072 1082.97 627.461 1086.71C627.425 1086.89 627.401 1087.06 627.377 1087.24V1087.28C627.305 1087.9 627.27 1088.51 627.27 1089.11C626.659 1088.28 625.881 1087.61 625.067 1087.15C624.145 1086.65 623.211 1086.39 622.301 1086.39C620.661 1086.39 619.117 1087.2 618.016 1088.75C617.285 1089.77 616.974 1091.02 617.154 1092.3C617.321 1093.56 617.956 1094.69 618.913 1095.45C620.015 1096.32 621.463 1096.48 622.708 1095.88C623.69 1095.4 624.384 1094.5 624.588 1093.45C624.768 1092.51 624.504 1091.58 623.882 1090.87C623.75 1090.72 623.606 1090.57 623.427 1090.5C623.247 1090.44 623.044 1090.45 622.876 1090.55C622.708 1090.64 622.577 1090.81 622.517 1091C622.457 1091.19 622.469 1091.4 622.565 1091.58C622.649 1091.75 622.804 1091.89 622.984 1091.96C623.139 1092.02 623.319 1092.01 623.463 1091.96C623.678 1092.35 623.738 1092.8 623.654 1093.26C623.522 1093.99 623.02 1094.62 622.313 1094.97C621.38 1095.41 620.302 1095.3 619.488 1094.65C617.92 1093.4 617.597 1091.02 618.782 1089.37C620.494 1086.96 622.924 1087.11 624.624 1088.05C626.623 1089.16 628.323 1091.78 627.341 1094.93C626.419 1097.84 623.247 1100.43 619.177 1099.53C617.154 1099.08 615.178 1097.76 613.012 1096.22L612.377 1095.76C609.193 1093.47 604.368 1090.02 600.837 1093.41C599.783 1094.42 599.209 1095.8 599.268 1097.18C599.304 1098.11 599.664 1099.46 601.1 1100.61C602.716 1101.9 605.039 1101.55 606.248 1099.83C606.739 1099.15 606.942 1098.24 606.81 1097.39C606.703 1096.69 606.355 1096.09 605.829 1095.73C605.517 1095.51 605.17 1095.38 604.799 1095.37C604.476 1095.35 604.26 1095.4 604.105 1095.51C603.77 1095.75 603.686 1096.22 603.913 1096.57C604.021 1096.74 604.189 1096.86 604.38 1096.9C604.572 1096.94 604.763 1096.9 604.931 1096.79C605.039 1096.71 605.122 1096.61 605.17 1096.48C605.218 1096.51 605.254 1096.53 605.302 1096.56C605.685 1096.84 605.829 1097.26 605.877 1097.56C605.961 1098.13 605.817 1098.76 605.494 1099.23C604.596 1100.49 602.884 1100.74 601.687 1099.8C600.789 1099.08 600.286 1098.15 600.238 1097.13C600.19 1096.07 600.657 1094.95 601.495 1094.16C604.464 1091.3 608.917 1094.49 611.85 1096.6L612.497 1097.05C614.759 1098.66 616.807 1100.02 618.997 1100.52C623.618 1101.54 627.222 1098.57 628.263 1095.24C628.311 1095.08 628.359 1094.9 628.407 1094.74C628.67 1095.36 628.969 1095.97 629.329 1096.53C631.364 1099.85 634.859 1101.68 638.427 1101.29C639.6 1101.16 640.498 1100.91 641.42 1100.44C645.179 1098.53 646.795 1093.78 645.059 1089.78C648.83 1091.62 653.343 1089.91 655.151 1085.94C655.594 1084.96 655.833 1084.02 655.953 1082.78C656.312 1079 654.6 1075.32 651.452 1073.17C650.913 1072.8 650.338 1072.47 649.752 1072.19C649.907 1072.16 650.063 1072.11 650.231 1072.04C653.379 1070.93 656.192 1067.12 655.223 1062.26C654.756 1059.93 653.463 1057.77 651.942 1055.39L651.512 1054.71C649.512 1051.6 646.496 1046.91 649.201 1043.77C649.955 1042.89 650.997 1042.39 652.014 1042.44C652.984 1042.49 653.858 1043.02 654.54 1043.97C655.438 1045.24 655.199 1047.05 654.002 1047.99C653.571 1048.33 652.96 1048.5 652.421 1048.4C652.134 1048.35 651.739 1048.2 651.476 1047.79C651.452 1047.75 651.428 1047.7 651.404 1047.65C651.511 1047.6 651.607 1047.51 651.691 1047.4C651.919 1047.05 651.823 1046.56 651.5 1046.34L651.44 1046.36ZM633.231 1077.34C635.015 1075.42 637.17 1073.95 639.48 1073.05C637.337 1074.88 635.865 1077.52 636.2 1080.48C633.411 1080.12 630.897 1081.68 629.173 1083.95C630.035 1081.51 631.424 1079.24 633.231 1077.35V1077.34ZM650.901 1074.04C653.738 1075.99 655.294 1079.3 654.971 1082.69C654.864 1083.81 654.648 1084.64 654.253 1085.51C652.649 1089.02 648.638 1090.5 645.322 1088.82C643.503 1087.9 642.365 1086 642.341 1083.86C642.318 1081.45 644.017 1078.83 646.591 1078.78C646.603 1078.78 646.627 1078.78 646.639 1078.78C647.669 1078.78 648.579 1079.39 649.021 1080.36C649.225 1080.82 649.249 1081.32 649.093 1081.79C648.938 1082.26 648.614 1082.64 648.183 1082.85C648.04 1082.93 647.884 1082.97 647.729 1082.98C647.752 1082.78 647.717 1082.58 647.609 1082.4C647.357 1081.98 646.831 1081.84 646.436 1082.11C646.244 1082.23 646.1 1082.44 646.053 1082.68C645.993 1082.92 646.041 1083.16 646.16 1083.36C646.304 1083.61 646.567 1083.74 646.783 1083.84C647.369 1084.09 648.028 1084.07 648.602 1083.78C649.955 1083.09 650.542 1081.39 649.895 1079.95C649.285 1078.58 648.004 1077.76 646.579 1077.78C643.443 1077.85 641.36 1080.99 641.396 1083.89C641.396 1084.83 641.599 1085.72 641.946 1086.53C641.18 1086.17 640.33 1085.96 639.444 1085.95H639.385C636.655 1085.95 633.71 1088.14 633.662 1091.43C633.638 1092.94 634.416 1094.28 635.709 1094.93C637.062 1095.61 638.69 1094.99 639.337 1093.56C639.612 1092.96 639.624 1092.26 639.396 1091.64C639.301 1091.4 639.181 1091.15 638.942 1090.98C638.75 1090.86 638.523 1090.82 638.295 1090.87C638.08 1090.92 637.888 1091.07 637.768 1091.27C637.649 1091.48 637.613 1091.72 637.661 1091.96C637.721 1092.2 637.852 1092.39 638.044 1092.51C638.211 1092.63 638.403 1092.67 638.594 1092.64C638.594 1092.8 638.547 1092.97 638.475 1093.12C638.056 1094.04 637.002 1094.45 636.128 1094.01C635.183 1093.54 634.608 1092.55 634.632 1091.44C634.68 1088.75 637.122 1086.95 639.396 1086.95H639.444C641.467 1086.98 643.263 1088.18 644.137 1090.1C645.729 1093.61 644.329 1097.85 641.001 1099.53C640.175 1099.95 639.396 1100.16 638.331 1100.29C638.044 1100.31 637.768 1100.34 637.481 1100.34C634.572 1100.34 631.819 1098.73 630.143 1095.99C629.017 1094.16 628.383 1091.96 628.287 1089.71C628.167 1086.89 629.257 1084.94 631.268 1083.18C632.8 1081.84 634.704 1081.11 636.715 1081.58C636.871 1081.61 637.038 1081.58 637.158 1081.44C637.278 1081.31 637.325 1081.13 637.29 1080.97C636.835 1078.81 637.565 1076.75 638.882 1075.13C640.809 1072.74 642.737 1071.8 645.741 1072.13C647.609 1072.33 649.393 1072.99 650.925 1074.04H650.901ZM328.009 0.0441223C327.064 0.0441223 326.297 0.853347 326.297 1.85223C326.297 2.85112 327.064 3.66034 328.009 3.66034C328.955 3.66034 329.721 2.85112 329.721 1.85223C329.721 0.853347 328.955 0.0441223 328.009 0.0441223ZM328.009 2.64881C327.59 2.64881 327.255 2.29478 327.255 1.85223C327.255 1.40969 327.59 1.05565 328.009 1.05565C328.428 1.05565 328.764 1.40969 328.764 1.85223C328.764 2.29478 328.428 2.64881 328.009 2.64881ZM43.6774 1095.74L43.0429 1096.19C40.8641 1097.74 38.9008 1099.05 36.8777 1099.51C32.8194 1100.42 29.635 1097.81 28.7132 1094.9C27.7196 1091.77 29.4195 1089.14 31.4187 1088.02C33.1187 1087.08 35.5488 1086.94 37.2607 1089.34C38.4459 1091.01 38.1347 1093.37 36.5544 1094.63C35.7404 1095.27 34.663 1095.4 33.7412 1094.94C33.0468 1094.6 32.544 1093.97 32.4123 1093.23C32.3285 1092.78 32.3884 1092.34 32.6039 1091.93C32.7475 1092 32.9271 1092 33.0827 1091.93C33.2743 1091.87 33.4179 1091.73 33.5017 1091.55C33.5855 1091.38 33.5975 1091.16 33.5496 1090.97C33.4898 1090.78 33.3581 1090.62 33.1905 1090.53C33.0109 1090.43 32.8194 1090.43 32.6398 1090.48C32.4483 1090.54 32.3166 1090.69 32.1729 1090.84C31.5504 1091.55 31.299 1092.49 31.4666 1093.42C31.6581 1094.47 32.3645 1095.38 33.3461 1095.85C34.5911 1096.46 36.0397 1096.29 37.141 1095.42C38.1107 1094.65 38.7332 1093.54 38.9008 1092.27C39.0684 1091.01 38.7691 1089.74 38.0389 1088.72C36.9375 1087.18 35.3932 1086.37 33.7531 1086.37C32.8433 1086.37 31.9095 1086.62 30.9878 1087.13C30.1737 1087.58 29.3956 1088.25 28.785 1089.09C28.785 1088.48 28.7491 1087.87 28.6773 1087.27V1087.23C28.6533 1087.04 28.6294 1086.86 28.6054 1086.68C27.9949 1082.94 26.1872 1079.35 23.5296 1076.59C20.9198 1073.77 17.52 1071.88 13.9764 1071.22C13.8088 1071.2 13.6412 1071.17 13.4736 1071.13H13.4617H13.4258C12.8511 1071.06 12.2765 1071.02 11.7139 1071.02C12.504 1070.37 13.1384 1069.55 13.5694 1068.69C14.9222 1065.97 14.3236 1063.05 12.0491 1061.24C11.0794 1060.47 9.88224 1060.16 8.69707 1060.33C7.49994 1060.51 6.43448 1061.17 5.70423 1062.19C4.87821 1063.34 4.72258 1064.89 5.2972 1066.2C5.75212 1067.24 6.60208 1067.97 7.59571 1068.19C8.48159 1068.38 9.36747 1068.1 10.0498 1067.43C10.1815 1067.29 10.3252 1067.15 10.385 1066.95C10.5047 1066.56 10.3012 1066.11 9.91815 1065.99C9.72661 1065.92 9.53507 1065.94 9.3555 1066.04C9.1879 1066.13 9.05621 1066.29 8.99636 1066.48C8.94847 1066.66 8.94847 1066.83 9.00833 1066.98C8.63721 1067.21 8.20625 1067.28 7.77528 1067.19C7.08094 1067.05 6.48237 1066.52 6.15914 1065.77C5.72817 1064.8 5.84788 1063.66 6.45842 1062.8C7.03305 1061.99 7.87105 1061.47 8.81678 1061.33C9.77449 1061.19 10.7083 1061.45 11.4625 1062.05C13.737 1063.86 13.5934 1066.43 12.7075 1068.22C11.654 1070.34 9.17593 1072.14 6.19506 1071.08C3.44164 1070.11 0.975538 1066.77 1.83748 1062.47C2.26845 1060.32 3.51347 1058.25 4.97398 1055.96L5.40495 1055.29C7.57176 1051.93 10.8399 1046.83 7.63162 1043.1C6.72179 1042.04 5.50071 1041.44 4.25569 1041.44C4.19584 1041.44 4.12401 1041.44 4.06415 1041.44C3.17827 1041.49 1.89734 1041.86 0.819913 1043.38C-0.401167 1045.09 -0.0659677 1047.53 1.55017 1048.82C2.19662 1049.33 3.07053 1049.56 3.86064 1049.41C4.53104 1049.3 5.09369 1048.92 5.44086 1048.37C5.64437 1048.06 5.76409 1047.68 5.77606 1047.29C5.78803 1046.96 5.75211 1046.72 5.64437 1046.54C5.41691 1046.2 4.97397 1046.1 4.63878 1046.34C4.31555 1046.58 4.21978 1047.05 4.44723 1047.4C4.51906 1047.51 4.61484 1047.6 4.73455 1047.65C4.71061 1047.7 4.68666 1047.74 4.66272 1047.79C4.39935 1048.21 4.0043 1048.35 3.71699 1048.4C3.17827 1048.5 2.56773 1048.33 2.13676 1047.99C0.939624 1047.05 0.700201 1045.24 1.59805 1043.97C2.28042 1043.01 3.15433 1042.48 4.12401 1042.44C5.15354 1042.39 6.18308 1042.89 6.93728 1043.77C9.64281 1046.92 6.62603 1051.61 4.62681 1054.71L4.19584 1055.39C2.67547 1057.78 1.39454 1059.94 0.927655 1062.26C-0.0539969 1067.12 2.77124 1070.93 5.91971 1072.04C6.07534 1072.09 6.24294 1072.14 6.39857 1072.19C5.8 1072.47 5.23735 1072.79 4.69864 1073.17C1.56214 1075.32 -0.16174 1079 0.197401 1082.78C0.317115 1084.02 0.556542 1084.96 0.999483 1085.94C2.80716 1089.91 7.30839 1091.62 11.0794 1089.78C9.34352 1093.78 10.9597 1098.53 14.7187 1100.44C15.6405 1100.91 16.5383 1101.16 17.7115 1101.29C21.279 1101.68 24.7746 1099.86 26.8097 1096.53C27.1569 1095.97 27.4682 1095.36 27.7315 1094.74C27.7675 1094.9 27.8153 1095.07 27.8752 1095.24C28.9287 1098.57 32.5201 1101.54 37.141 1100.52C39.3318 1100.02 41.3789 1098.66 43.6415 1097.05L44.2879 1096.6C47.2329 1094.49 51.6743 1091.3 54.6551 1094.16C55.4931 1094.95 55.96 1096.07 55.9121 1097.13C55.8643 1098.15 55.3615 1099.08 54.4636 1099.8C53.2665 1100.74 51.5546 1100.49 50.6567 1099.23C50.3335 1098.76 50.1779 1098.13 50.2736 1097.56C50.3215 1097.26 50.4652 1096.84 50.8482 1096.56C50.8961 1096.53 50.932 1096.51 50.9799 1096.48C51.0398 1096.6 51.1236 1096.7 51.2194 1096.79C51.375 1096.9 51.5785 1096.95 51.7581 1096.9C51.9496 1096.86 52.1172 1096.75 52.225 1096.57C52.4524 1096.22 52.3566 1095.75 52.0334 1095.51C51.8778 1095.4 51.6503 1095.35 51.3391 1095.37C50.968 1095.38 50.6208 1095.51 50.3095 1095.73C49.7828 1096.1 49.4356 1096.7 49.3279 1097.39C49.1962 1098.24 49.4117 1099.15 49.8905 1099.83C51.1116 1101.54 53.4221 1101.9 55.0382 1100.61C56.4748 1099.47 56.8339 1098.11 56.8699 1097.18C56.9297 1095.8 56.3551 1094.42 55.3016 1093.41C51.7581 1090.02 46.9456 1093.47 43.7612 1095.76L43.6774 1095.74ZM22.8233 1077.32C24.631 1079.19 26.0316 1081.48 26.8816 1083.92C25.1577 1081.64 22.6437 1080.08 19.8544 1080.44C20.1896 1077.49 18.7171 1074.84 16.5742 1073.02C18.8847 1073.91 21.0395 1075.39 22.8233 1077.3V1077.32ZM25.9478 1095.97C24.2718 1098.7 21.5184 1100.31 18.6094 1100.31C18.322 1100.31 18.0467 1100.3 17.7594 1100.26C16.6939 1100.15 15.9158 1099.92 15.0898 1099.51C11.7617 1097.81 10.3611 1093.59 11.9533 1090.07C12.8272 1088.15 14.6229 1086.95 16.6461 1086.92H16.6939C18.9685 1086.92 21.4226 1088.72 21.4585 1091.41C21.4705 1092.53 20.8959 1093.51 19.9621 1093.98C19.0762 1094.42 18.0347 1094.02 17.6157 1093.1C17.5439 1092.94 17.508 1092.78 17.496 1092.61C17.6876 1092.64 17.8791 1092.6 18.0467 1092.49C18.2382 1092.36 18.3699 1092.16 18.4298 1091.93C18.4777 1091.7 18.4418 1091.45 18.322 1091.25C18.2023 1091.05 18.0108 1090.9 17.7953 1090.84C17.5679 1090.79 17.3404 1090.83 17.1489 1090.96C16.9214 1091.11 16.7897 1091.38 16.7059 1091.62C16.4665 1092.24 16.4904 1092.94 16.7658 1093.54C17.4122 1094.97 19.0403 1095.59 20.3931 1094.9C21.686 1094.26 22.4641 1092.92 22.4402 1091.4C22.3923 1088.11 19.4474 1085.93 16.7179 1085.93H16.67C15.7841 1085.93 14.9342 1086.14 14.168 1086.51C14.5152 1085.7 14.7067 1084.8 14.7187 1083.86C14.7426 1080.97 12.6716 1077.82 9.53506 1077.76C8.11047 1077.73 6.84151 1078.55 6.23097 1079.92C5.58452 1081.35 6.17111 1083.07 7.52387 1083.75C8.0985 1084.04 8.75693 1084.05 9.34352 1083.81C9.55901 1083.73 9.82238 1083.59 9.96603 1083.33C10.0857 1083.13 10.1217 1082.89 10.0738 1082.65C10.0259 1082.41 9.88224 1082.22 9.69069 1082.08C9.29564 1081.82 8.7689 1081.96 8.5175 1082.37C8.40976 1082.55 8.37385 1082.75 8.39779 1082.95C8.24216 1082.94 8.08653 1082.89 7.94288 1082.83C7.51191 1082.61 7.20065 1082.23 7.03305 1081.77C6.87742 1081.3 6.90137 1080.79 7.10488 1080.34C7.54782 1079.35 8.45765 1078.76 9.48718 1078.76C9.49915 1078.76 9.52309 1078.76 9.53506 1078.76C12.1089 1078.81 13.8088 1081.42 13.7849 1083.84C13.761 1085.98 12.6237 1087.87 10.804 1088.8C7.47599 1090.48 3.46559 1089 1.87339 1085.48C1.47834 1084.61 1.27483 1083.79 1.15511 1082.66C0.819913 1079.26 2.38816 1075.95 5.22538 1074.02C6.75771 1072.97 8.55341 1072.32 10.409 1072.11C13.4138 1071.76 15.3412 1072.71 17.2686 1075.1C18.5854 1076.73 19.3276 1078.78 18.8608 1080.94C18.8248 1081.11 18.8608 1081.29 18.9924 1081.41C19.1122 1081.54 19.2798 1081.58 19.4354 1081.55C21.4466 1081.07 23.35 1081.82 24.8824 1083.16C26.8935 1084.91 27.9829 1086.86 27.8632 1089.68C27.7675 1091.93 27.133 1094.12 26.0077 1095.97H25.9478ZM8.45764 1093.13C8.5175 1092.94 8.48159 1092.74 8.3499 1092.6C8.21822 1092.46 8.02667 1092.41 7.8471 1092.49C6.55419 1093.01 4.90215 1092.89 3.42967 1092.2C3.3339 1092.16 3.23813 1092.13 3.14236 1092.13C2.96279 1092.13 2.79519 1092.2 2.6635 1092.34C2.47196 1092.51 2.40013 1092.79 2.45999 1093.08C2.60364 1093.68 2.89096 1094.21 3.29798 1094.66C2.73533 1095.59 2.40013 1097.01 2.45999 1098.34C2.47196 1098.6 2.6635 1098.81 2.9149 1098.82C4.15992 1098.9 5.51269 1098.54 6.39857 1097.94C6.82954 1098.38 7.33233 1098.67 7.89499 1098.82C8.17033 1098.89 8.4337 1098.82 8.6013 1098.62C8.79284 1098.41 8.84072 1098.09 8.72101 1097.81C8.06259 1096.26 7.96682 1094.51 8.44567 1093.15L8.45764 1093.13ZM6.82954 1096.93C6.74574 1096.83 6.62603 1096.75 6.49434 1096.75C6.36266 1096.75 6.24294 1096.79 6.1352 1096.88C5.58451 1097.39 4.47118 1097.76 3.4177 1097.8C3.45362 1096.69 3.80078 1095.51 4.29161 1094.93C4.37541 1094.83 4.42329 1094.69 4.41132 1094.55C4.41132 1094.41 4.33949 1094.28 4.24372 1094.2C3.95641 1093.94 3.72896 1093.66 3.5853 1093.35C4.39935 1093.66 5.23735 1093.82 6.06337 1093.82C6.49434 1093.82 6.91334 1093.78 7.32036 1093.69C7.08094 1094.93 7.18868 1096.31 7.64359 1097.62C7.34431 1097.46 7.08093 1097.23 6.84151 1096.93H6.82954ZM653.367 1092.32C653.235 1092.2 653.068 1092.12 652.888 1092.12C652.792 1092.12 652.697 1092.15 652.601 1092.18C651.128 1092.88 649.476 1092.98 648.183 1092.48C648.004 1092.41 647.812 1092.45 647.669 1092.59C647.537 1092.73 647.501 1092.94 647.561 1093.12C648.04 1094.49 647.944 1096.23 647.286 1097.79C647.166 1098.05 647.226 1098.37 647.405 1098.6C647.573 1098.8 647.848 1098.87 648.112 1098.8C648.674 1098.65 649.177 1098.34 649.608 1097.91C650.482 1098.51 651.847 1098.87 653.092 1098.8C653.343 1098.8 653.535 1098.58 653.547 1098.32C653.607 1097 653.283 1095.57 652.709 1094.64C653.116 1094.18 653.403 1093.65 653.547 1093.06C653.607 1092.78 653.547 1092.5 653.355 1092.31L653.367 1092.32ZM649.883 1096.86C649.788 1096.77 649.656 1096.72 649.524 1096.74C649.393 1096.74 649.273 1096.81 649.189 1096.91C648.95 1097.22 648.686 1097.46 648.387 1097.61C648.842 1096.29 648.95 1094.92 648.71 1093.68C649.117 1093.77 649.536 1093.8 649.967 1093.8C650.781 1093.8 651.619 1093.65 652.445 1093.34C652.29 1093.65 652.074 1093.93 651.787 1094.18C651.691 1094.27 651.631 1094.4 651.619 1094.54C651.607 1094.68 651.655 1094.8 651.739 1094.92C652.23 1095.5 652.577 1096.67 652.613 1097.79C651.559 1097.75 650.446 1097.38 649.895 1096.86H649.883ZM54.9544 0.828057C53.3383 -0.461643 51.0158 -0.120251 49.8067 1.59935C49.3159 2.28213 49.1124 3.19251 49.2441 4.03966C49.3518 4.74774 49.699 5.34201 50.2257 5.70869C50.537 5.92364 50.8842 6.05008 51.2553 6.06272C51.5785 6.08801 51.794 6.03743 51.9496 5.92364C52.2728 5.6834 52.3686 5.21557 52.1412 4.86153C52.0334 4.68451 51.8658 4.57072 51.6743 4.53278C51.4947 4.49485 51.2912 4.53278 51.1356 4.64658C51.0278 4.72245 50.944 4.8236 50.8961 4.95004C50.8482 4.92475 50.8123 4.89946 50.7644 4.87418C50.3694 4.59601 50.2377 4.17875 50.1898 3.87529C50.0941 3.3063 50.2497 2.6741 50.5729 2.20627C51.4708 0.941854 53.1827 0.688971 54.3798 1.63728C55.2777 2.35799 55.7804 3.28102 55.8283 4.30519C55.8762 5.3673 55.4093 6.47998 54.5713 7.27656C51.6024 10.1341 47.1491 6.94781 44.2041 4.83625L43.5577 4.38106C41.2951 2.77525 39.248 1.40969 37.0572 0.92921C32.4363 -0.0949639 28.8329 2.87641 27.7914 6.20181C27.7435 6.36618 27.6956 6.53055 27.6477 6.69493C27.3844 6.07537 27.0851 5.46845 26.7259 4.89947C24.6908 1.58671 21.1952 -0.246692 17.6277 0.145276C16.4545 0.271717 15.5567 0.524599 14.6349 0.992432C10.8759 2.90169 9.25972 7.65588 10.9956 11.6514C7.22459 9.81803 2.72336 11.525 0.915683 15.4952C0.472743 16.4688 0.233315 17.4171 0.113601 18.6436C-0.257511 22.4242 1.46637 26.1037 4.61484 28.2532C5.15355 28.6198 5.72817 28.9486 6.31477 29.2268C6.15914 29.2647 6.00351 29.3153 5.83591 29.3785C2.68744 30.4912 -0.125825 34.297 0.843856 39.165C1.31074 41.4916 2.60365 43.6537 4.11204 46.0308L4.54301 46.7136C6.54223 49.824 9.55901 54.515 6.85348 57.6507C6.09929 58.5358 5.05777 59.0289 4.04021 58.9784C3.07053 58.9278 2.19662 58.3968 1.51425 57.4484C0.616399 56.184 0.855825 54.3759 2.05296 53.4276C2.48393 53.0862 3.09447 52.9218 3.63318 53.023C3.92049 53.0736 4.31555 53.2253 4.57892 53.6299C4.60286 53.6805 4.63878 53.7184 4.65075 53.769C4.54301 53.8322 4.43526 53.9081 4.36344 54.0219C4.13598 54.3759 4.23175 54.8564 4.55498 55.084C4.89018 55.3242 5.34509 55.2231 5.56057 54.8817C5.66831 54.7047 5.7162 54.4771 5.69226 54.1357C5.68029 53.7437 5.56057 53.377 5.35706 53.0483C4.99792 52.4919 4.43527 52.1253 3.77684 52.0115C2.98673 51.8724 2.11282 52.0873 1.46637 52.6057C-0.149767 53.8954 -0.484966 56.3358 0.736113 58.0427C1.81354 59.56 3.09447 59.9393 3.98035 59.9773C4.04021 59.9773 4.11204 59.9773 4.17189 59.9773C5.41692 59.9773 6.63799 59.383 7.54782 58.3209C10.7561 54.5909 7.48796 49.4953 5.32114 46.1319L4.89018 45.4618C3.42967 43.1606 2.18465 41.0869 1.75368 38.9501C0.891739 34.6511 3.35784 31.3004 6.11126 30.3394C9.08016 29.29 11.5702 31.0854 12.6237 33.197C13.5096 34.9925 13.6532 37.5592 11.3787 39.3673C10.6125 39.9743 9.67872 40.2271 8.73299 40.0881C7.78725 39.949 6.94925 39.4306 6.37463 38.6213C5.76409 37.7615 5.64437 36.6236 6.07534 35.65C6.39857 34.9166 6.99714 34.3856 7.69148 34.2338C8.12245 34.1453 8.54144 34.2212 8.92453 34.4361C8.86467 34.5879 8.8527 34.7649 8.91255 34.9419C8.97241 35.1442 9.1041 35.2959 9.2717 35.3844C9.45127 35.4729 9.64281 35.4982 9.83435 35.435C10.2174 35.2959 10.4209 34.866 10.3012 34.4741C10.2414 34.2844 10.1097 34.1327 9.96603 34.0062C9.28367 33.3361 8.39779 33.0706 7.51191 33.2476C6.51828 33.4499 5.65635 34.1959 5.21341 35.2327C4.63878 36.5477 4.7944 38.0776 5.62043 39.2409C6.35068 40.2651 7.40416 40.9226 8.61327 41.0996C9.81041 41.2766 11.0075 40.9479 11.9653 40.1892C14.2398 38.3811 14.8264 35.4603 13.4856 32.7418C13.0546 31.882 12.4202 31.0602 11.6301 30.4153C12.2047 30.4153 12.7793 30.3774 13.342 30.3015H13.3779C13.5455 30.2762 13.7131 30.2509 13.8807 30.2256C17.4242 29.5808 20.8241 27.6715 23.4338 24.8519C26.0915 22.0955 27.8991 18.5045 28.5097 14.7619C28.5336 14.5849 28.5576 14.4078 28.5815 14.2308V14.1929C28.6533 13.5733 28.6892 12.9664 28.6892 12.3595C29.2998 13.194 30.0779 13.8641 30.892 14.3193C31.8138 14.8251 32.7475 15.078 33.6574 15.078C35.2974 15.078 36.8418 14.2688 37.9431 12.7262C38.6734 11.702 38.9846 10.4502 38.8051 9.18582C38.6375 7.92141 38.0149 6.79608 37.0453 6.02479C35.9559 5.15235 34.4954 4.98797 33.2503 5.59489C32.2687 6.07537 31.5744 6.9731 31.3708 8.02256C31.1913 8.95823 31.4546 9.89389 32.0771 10.602C32.2088 10.7537 32.3525 10.9054 32.544 10.9686C32.7236 11.0319 32.9151 11.0192 33.0947 10.9181C33.2623 10.8296 33.394 10.6652 33.4539 10.4755C33.5137 10.2859 33.5017 10.0709 33.406 9.89389C33.3222 9.71688 33.1665 9.57779 32.987 9.51457C32.8313 9.45135 32.6518 9.46399 32.5081 9.51457C32.2926 9.1226 32.2328 8.66741 32.3166 8.21222C32.4483 7.47887 32.9511 6.84666 33.6454 6.50527C34.5792 6.06273 35.6566 6.17652 36.4587 6.82137C38.0389 8.07314 38.3501 10.4376 37.165 12.1066C35.4531 14.509 33.0229 14.3573 31.323 13.4216C29.3237 12.3089 27.6238 9.69158 28.6174 6.55584C29.5392 3.64769 32.7116 1.04301 36.7819 1.95338C38.8051 2.40857 40.7684 3.72356 42.9471 5.26614L43.5816 5.72133C46.766 8.00992 51.5905 11.4744 55.122 8.07314C56.1755 7.06161 56.7501 5.6834 56.6903 4.30519C56.6424 3.36952 56.2952 2.02925 54.8587 0.878635L54.9544 0.828057ZM22.8233 24.0932C21.0395 26.0151 18.8847 27.4819 16.5742 28.3796C18.7171 26.5588 20.1896 23.9162 19.8544 20.9575C22.6437 21.3115 25.1457 19.7563 26.8816 17.4804C26.0316 19.9207 24.631 22.1966 22.8233 24.0806V24.0932ZM24.8225 18.2517C23.2902 19.5919 21.3867 20.3253 19.3755 19.8575C19.2199 19.8195 19.0523 19.8701 18.9326 19.9965C18.8129 20.123 18.765 20.3 18.8009 20.4644C19.2558 22.6265 18.5136 24.6875 17.2087 26.306C15.2813 28.6957 13.3539 29.6314 10.3491 29.3026C8.48159 29.1003 6.69785 28.4428 5.16552 27.3934C2.32831 25.4462 0.772027 22.1334 1.09525 18.7448C1.203 17.6195 1.40651 16.7976 1.81354 15.9251C3.4177 12.4101 7.42811 10.9307 10.7442 12.6124C12.5638 13.5354 13.7011 15.432 13.725 17.5689C13.749 19.9839 12.0491 22.6012 9.47521 22.6518C9.46324 22.6518 9.43929 22.6518 9.42732 22.6518C8.39779 22.6518 7.48796 22.0449 7.04502 21.0713C6.84151 20.6161 6.81757 20.1103 6.97319 19.6425C7.12882 19.1747 7.45205 18.7954 7.88302 18.5804C8.02668 18.5045 8.1823 18.4666 8.33793 18.454C8.31398 18.6563 8.36187 18.8586 8.45764 19.0356C8.70904 19.4528 9.23578 19.5919 9.63084 19.3264C9.82238 19.2 9.96603 18.9977 10.0139 18.7574C10.0618 18.5172 10.0259 18.2769 9.90618 18.0746C9.76252 17.8218 9.49915 17.6953 9.28367 17.5942C8.69707 17.3413 8.03864 17.3666 7.46402 17.6574C6.11125 18.3402 5.52466 20.0471 6.17111 21.4886C6.78165 22.8541 8.06259 23.676 9.47521 23.6507C12.6117 23.5875 14.6947 20.4517 14.6588 17.5436C14.6588 16.6079 14.4553 15.7102 14.1081 14.901C14.8743 15.2676 15.7243 15.47 16.6101 15.4826H16.658C19.3875 15.4826 22.3325 13.2952 22.3803 10.0077C22.4043 8.49039 21.6142 7.15012 20.3332 6.50527C18.9805 5.82249 17.3524 6.44205 16.7059 7.87083C16.4306 8.47775 16.4186 9.17318 16.6461 9.79274C16.7418 10.033 16.8615 10.2985 17.089 10.4502C17.2805 10.5767 17.508 10.6146 17.7355 10.564C17.9629 10.5135 18.1425 10.3617 18.2622 10.1594C18.3819 9.95711 18.4178 9.71687 18.3699 9.47664C18.322 9.2364 18.1784 9.04674 17.9869 8.9203C17.8193 8.8065 17.6277 8.76856 17.4362 8.79385C17.4362 8.62948 17.4841 8.46511 17.5559 8.31338C17.9749 7.39036 19.0284 6.98574 19.9023 7.42829C20.848 7.89612 21.4226 8.88236 21.3987 9.99504C21.3508 12.6882 18.9086 14.4837 16.6341 14.4837C16.6221 14.4837 16.6101 14.4837 16.5862 14.4837C14.563 14.4584 12.7673 13.2572 11.8934 11.3353C10.2893 7.82026 11.7019 3.58447 15.0299 1.90281C15.8559 1.48555 16.6341 1.2706 17.6995 1.14416C17.9868 1.11887 18.2622 1.09358 18.5495 1.09358C21.4585 1.09358 24.212 2.69939 25.8879 5.44316C27.0133 7.27656 27.6477 9.47663 27.7435 11.7273C27.8632 14.5469 26.7619 16.4941 24.7626 18.2517H24.8225Z" fill="#BBA360"/>
</svg>
