<svg width="289" height="46" viewBox="0 0 289 46" fill="none" xmlns="http://www.w3.org/2000/svg">
<path fill-rule="evenodd" clip-rule="evenodd" d="M5.11011 45.2892H34.9487C37.5546 45.2892 40.1605 45.2892 42.7801 45.2892H283.849C285.282 45.2483 287.314 44.9754 288.447 43.0108C289.047 41.9602 289.17 40.705 288.761 39.5589C288.133 37.7716 286.155 36.8302 284.381 37.4715C283.794 37.6761 283.017 38.2764 282.744 38.945C282.58 39.3406 282.594 39.7363 282.771 40.0637C282.921 40.3502 283.18 40.5549 283.481 40.6504C283.794 40.7459 284.122 40.705 284.395 40.5549C284.981 40.2411 285.2 39.5043 284.886 38.9177C284.804 38.7676 284.709 38.6448 284.586 38.5493C284.64 38.522 284.695 38.4947 284.749 38.4811C285.964 38.0445 287.314 38.6857 287.751 39.9C288.051 40.7459 287.969 41.6737 287.519 42.4514C286.851 43.6111 285.759 44.1295 283.863 44.1705H250.845C244.856 43.9931 240.34 42.4786 237.406 39.6681C237.188 39.4634 236.86 39.4634 236.656 39.6681C233.736 42.4786 229.22 43.9931 223.23 44.1705H68.9076C67.1612 44.1705 65.4558 44.1978 63.723 44.0477C58.7568 43.6111 54.9366 42.1376 52.3579 39.6681C52.1396 39.4634 51.8122 39.4634 51.6075 39.6681C49.4928 41.701 46.5321 43.0653 42.7801 43.7202C40.065 44.1977 37.5955 44.1705 34.8668 44.1705H5.16468C3.25457 44.1159 2.14944 43.6111 1.49454 42.4514C1.04431 41.6737 0.962446 40.7459 1.26261 39.9C1.6992 38.6857 3.03628 38.0445 4.25056 38.4674C4.30513 38.4811 4.3597 38.5084 4.41428 38.5357C4.29148 38.6312 4.18234 38.7676 4.10048 38.904C3.78667 39.4907 4.01863 40.2138 4.60531 40.5276C5.19198 40.8414 5.91507 40.6231 6.22888 40.0364C6.35167 39.8181 6.39261 39.5726 6.36532 39.327C6.35168 39.1632 6.31074 39.0405 6.25617 38.9177C5.96965 38.2355 5.20562 37.6488 4.61894 37.4442C2.83163 36.8166 0.866941 37.7443 0.239335 39.5316C-0.169973 40.6777 -0.0471658 41.9329 0.553153 42.9835C1.67193 44.9481 3.71846 45.221 5.16468 45.2483L5.11011 45.2892ZM237.01 40.8414C238.689 42.3286 240.803 43.461 243.341 44.1977H230.68C233.218 43.4473 235.332 42.3286 237.01 40.8414ZM51.935 40.8414C53.6131 42.3286 55.7279 43.461 58.2656 44.1977H45.6043C48.142 43.4473 50.2568 42.3286 51.935 40.8414ZM79.6588 38.0036C80.4774 38.5493 81.6234 38.8085 83.0014 38.8085C103.48 38.8085 123.96 38.8358 144.52 38.8358H172.995C173.199 38.8631 173.404 38.8631 173.622 38.8631C173.841 38.8631 174.032 38.8631 174.25 38.8358H205.971C207.349 38.8358 208.495 38.5493 209.314 38.0036C210.637 37.1167 210.828 35.8342 210.433 34.9747C210.269 34.6199 210.037 34.3744 209.764 34.2516C209.491 34.1288 209.191 34.1288 208.918 34.2379C208.645 34.3471 208.427 34.5517 208.304 34.8246C208.059 35.384 208.304 36.0389 208.864 36.2845C209.027 36.3527 209.205 36.3936 209.382 36.38C209.259 36.6255 209.041 36.8848 208.7 37.1031C208.072 37.526 207.104 37.758 205.971 37.758H177.183C178.507 36.8848 179.53 35.5886 180.048 34.0469C180.799 31.8094 180.553 29.4763 179.366 27.4707C178.084 25.315 175.792 23.746 173.24 23.2957C167.701 22.327 164.017 25.8744 160.115 29.6264C156.731 32.8872 153.252 36.2299 148.191 37.3623C150.919 35.9979 153.812 33.8832 155.654 30.4041C155.749 30.2403 155.736 30.0357 155.64 29.872C155.544 29.7082 155.367 29.6127 155.176 29.6127C151.219 29.6127 148 26.3928 148 22.4362C148 22.0132 148.041 21.6039 148.109 21.1946H149.282C149.582 21.1946 149.828 20.949 149.828 20.6489C149.828 20.3487 149.582 20.1031 149.282 20.1031H148.368C148.927 18.3704 150.114 16.8696 151.724 15.9418C153.73 14.7958 155.981 14.7821 157.919 15.9009C159.133 16.6104 160.02 17.8792 160.361 19.4073C160.593 20.4306 160.388 21.4948 159.788 22.4226C159.201 23.323 158.273 23.9779 157.25 24.1962C155.613 24.551 153.975 23.5277 153.607 21.8768C153.389 20.9218 153.935 19.7893 154.767 19.4482C154.808 19.4346 154.849 19.421 154.89 19.4073C154.89 19.612 154.958 19.803 155.081 19.9667C155.408 20.4442 156.049 20.5534 156.527 20.2259C157.004 19.8985 157.114 19.2572 156.8 18.7797C156.581 18.4659 156.227 18.3431 155.967 18.2885C155.463 18.1657 154.903 18.2203 154.371 18.4386C153.034 18.9844 152.215 20.6352 152.543 22.1224C153.048 24.3463 155.258 25.7516 157.482 25.2604C158.778 24.9739 159.951 24.1553 160.702 23.0092C161.466 21.8359 161.725 20.4715 161.425 19.1617C161.016 17.3471 159.938 15.8054 158.464 14.9459C156.186 13.6224 153.525 13.6361 151.179 14.9868C149.228 16.1056 147.822 17.9611 147.222 20.1031H145.053V15.2597C145.366 13.295 146.485 11.7396 148.313 10.7436C148.463 10.6618 148.559 10.5253 148.586 10.3616C148.614 10.1979 148.586 10.0342 148.463 9.91136C147.045 8.2332 145.339 4.42664 145.053 1.20675C145.025 0.920231 144.793 0.715576 144.507 0.715576C144.22 0.715576 143.988 0.933875 143.961 1.20675C143.661 4.42664 141.955 8.21956 140.55 9.91136C140.441 10.0342 140.4 10.1979 140.427 10.3616C140.455 10.5253 140.564 10.6618 140.7 10.7436C142.515 11.7396 143.647 13.295 143.961 15.2597V20.1031H141.792C141.191 17.9747 139.786 16.1192 137.835 14.9868C135.488 13.6361 132.828 13.6224 130.549 14.9459C129.049 15.819 127.998 17.3062 127.589 19.1617C127.302 20.4715 127.561 21.8359 128.326 23.0092C129.076 24.1553 130.236 24.9739 131.545 25.2604C133.783 25.7516 135.98 24.3463 136.484 22.1224C136.812 20.6352 135.993 18.9844 134.67 18.4386C134.138 18.2203 133.578 18.1657 133.074 18.2885C132.828 18.3431 132.46 18.4659 132.241 18.7797C131.914 19.2436 132.037 19.8985 132.5 20.2259C132.732 20.3897 133.019 20.4442 133.278 20.3897C133.551 20.3351 133.783 20.185 133.947 19.9531C134.056 19.7893 134.124 19.5983 134.138 19.3937C134.179 19.3937 134.22 19.421 134.26 19.4346C135.093 19.7757 135.639 20.9081 135.42 21.8632C135.052 23.5004 133.428 24.5373 131.777 24.1826C130.754 23.9506 129.84 23.3094 129.24 22.4089C128.639 21.4948 128.435 20.4169 128.667 19.3937C129.008 17.8519 129.881 16.5967 131.109 15.8873C133.046 14.7548 135.297 14.7685 137.303 15.9282C138.913 16.856 140.1 18.3568 140.659 20.0895H139.745C139.445 20.0895 139.199 20.3351 139.199 20.6352C139.199 20.9354 139.445 21.181 139.745 21.181H140.919C140.987 21.5903 141.028 21.9996 141.028 22.4226C141.028 26.3792 137.808 29.5991 133.851 29.5991C133.66 29.5991 133.483 29.6946 133.387 29.8583C133.292 30.022 133.278 30.2267 133.374 30.3904C135.216 33.8695 138.094 35.9843 140.837 37.3487C135.775 36.2299 132.296 32.8736 128.912 29.6127C125.01 25.8607 121.326 22.3134 115.787 23.2821C113.236 23.7323 110.944 25.2877 109.661 27.457C108.474 29.4627 108.228 31.7957 108.979 34.0333C109.497 35.575 110.507 36.8848 111.844 37.7443H83.0696C81.9372 37.7443 80.9549 37.5124 80.3409 37.0894C80.0135 36.8575 79.7815 36.6119 79.6588 36.3663C79.8225 36.38 80.0135 36.3527 80.1909 36.2708C80.7503 36.0252 80.9958 35.3703 80.7503 34.8109C80.5047 34.2516 79.8498 33.9923 79.2904 34.2516C79.0175 34.3744 78.7856 34.6199 78.6219 34.9747C78.2262 35.8342 78.4036 37.1031 79.7406 38.0036H79.6588ZM160.852 30.4041C164.713 26.693 168.042 23.4868 173.036 24.3599C175.273 24.7556 177.292 26.12 178.411 28.0164C179.434 29.7355 179.653 31.7548 178.998 33.6785C178.37 35.5613 176.869 37.0212 174.959 37.5806C174.7 37.6625 174.427 37.717 174.154 37.7443H173.049C171.221 37.526 169.597 36.2572 169.038 34.3744C168.465 32.4233 169.57 30.3631 171.521 29.7765C172.626 29.449 173.8 29.8174 174.509 30.6769C174.223 30.8679 174.032 31.1817 174.032 31.5501C174.032 32.1232 174.495 32.587 175.069 32.587C175.642 32.587 176.105 32.1232 176.105 31.5501C176.105 31.0862 175.655 30.4177 175.573 30.2813C174.605 28.8623 172.845 28.2347 171.194 28.7259C168.67 29.4763 167.223 32.1504 167.974 34.6745C168.356 35.9434 169.134 36.9939 170.13 37.7307H150.605C154.821 36.1617 157.946 33.1464 160.811 30.3904L160.852 30.4041ZM146.976 21.1673C146.922 21.5766 146.881 21.986 146.881 22.4089C146.881 26.6657 150.101 30.1721 154.235 30.6224C152.379 33.6512 149.419 35.8615 145.025 37.5124V21.1673H146.963H146.976ZM141.751 10.0887C142.774 8.6698 143.838 6.44589 144.48 4.14012C145.121 6.44589 146.185 8.6698 147.208 10.0887C145.967 10.8937 145.039 11.9579 144.48 13.2268C143.92 11.9579 143.006 10.8937 141.751 10.0887ZM134.724 30.6224C138.858 30.1721 142.078 26.6521 142.078 22.4089C142.078 21.986 142.051 21.5766 141.983 21.1673H143.92V37.5124C139.527 35.8615 136.566 33.6512 134.711 30.6224H134.724ZM109.961 33.6785C109.32 31.7548 109.525 29.7355 110.548 28.0164C111.68 26.12 113.686 24.7556 115.937 24.3599C120.931 23.4868 124.26 26.693 128.121 30.4041C130.986 33.1601 134.11 36.1753 138.326 37.7443H118.789C119.785 37.0212 120.576 35.9707 120.944 34.6882C121.313 33.4602 121.176 32.1641 120.562 31.0453C119.948 29.9265 118.939 29.1079 117.724 28.7395C116.074 28.2484 114.314 28.876 113.358 30.2949C113.263 30.4313 112.826 31.0999 112.826 31.5638C112.826 32.1368 113.29 32.6007 113.863 32.6007C114.436 32.6007 114.9 32.1368 114.9 31.5638C114.9 31.1954 114.709 30.8816 114.423 30.6906C115.146 29.8174 116.319 29.4627 117.411 29.7901C118.352 30.0766 119.13 30.7042 119.607 31.5638C120.085 32.437 120.18 33.4329 119.894 34.3744C119.607 35.3158 119.061 36.1207 118.338 36.6938C116.442 38.2355 113.877 38.0035 112.008 36.5573C111.066 35.8342 110.33 34.8246 109.948 33.6649L109.961 33.6785Z" fill="#BBA360"/>
</svg>
