<svg width="18" height="22" viewBox="0 0 18 22" fill="none" xmlns="http://www.w3.org/2000/svg">
<path fill-rule="evenodd" clip-rule="evenodd" d="M3.51266 8.27039C1.85735 8.27039 0.5 9.49891 0.5 10.9971C0.5 12.4953 1.85735 13.7237 3.51266 13.7237C5.16797 13.7237 6.52532 12.4953 6.52532 10.9971C6.52532 9.49891 5.16797 8.27039 3.51266 8.27039ZM3.51266 12.5252C2.58569 12.5252 1.82424 11.8361 1.82424 10.9971C1.82424 10.1581 2.58569 9.46894 3.51266 9.46894C4.43963 9.46894 5.20107 10.1581 5.20107 10.9971C5.20107 11.8361 4.43963 12.5252 3.51266 12.5252ZM16.9869 10.4128C14.8681 9.93338 13.0141 9.2442 11.4912 8.36028C8.99172 6.92203 7.78335 5.30401 7.78335 3.44627C7.78335 3.41631 7.78335 3.37138 7.78335 3.34141C7.78335 2.65226 8.03165 1.4687 9.35589 1.21401C9.73661 1.1391 10.0677 1.27393 10.2498 1.43873C9.72006 1.51364 9.32279 1.91813 9.32279 2.41253C9.32279 2.95187 9.80282 3.40133 10.4153 3.40133C10.7298 3.40133 11.094 3.2665 11.3257 3.05676C11.5906 2.80207 11.7064 2.48744 11.7561 2.36759C11.9382 1.7833 11.7561 1.13909 11.2761 0.659672C10.7298 0.12033 9.88558 -0.104379 9.09104 0.0454384C7.48539 0.360055 6.50877 1.58854 6.47566 3.32642V3.44627C6.47566 5.7235 7.93233 7.73106 10.796 9.37905C11.9051 10.0083 13.1465 10.5476 14.537 10.9971C13.1631 11.4316 11.9051 11.9709 10.796 12.6151C7.91578 14.2781 6.47566 16.2706 6.47566 18.5479V18.6677C6.50877 20.4056 7.50194 21.6341 9.09104 21.9487C9.88558 22.1135 10.7298 21.8738 11.2761 21.3345C11.7726 20.855 11.9547 20.2258 11.7726 19.6265C11.723 19.5067 11.6071 19.1921 11.3588 18.9374C11.1271 18.7277 10.7629 18.5778 10.4484 18.5778C9.85249 18.5778 9.35589 19.0123 9.35589 19.5666C9.35589 20.061 9.76971 20.4655 10.2829 20.5404C10.1008 20.7052 9.76972 20.8401 9.37245 20.7652C8.03165 20.4955 7.81645 19.3119 7.7999 18.6377C7.7999 18.6078 7.7999 18.5629 7.7999 18.5329C7.7999 16.6602 9.00828 15.0571 11.5078 13.6189C13.0307 12.735 14.8846 12.0458 17.0034 11.5664C17.3014 11.5064 17.5 11.2667 17.5 10.9821C17.5 10.6974 17.2848 10.4727 17.0034 10.3978L16.9869 10.4128Z" fill="#BBA360"/>
</svg>
