<svg width="55" height="14" viewBox="0 0 55 14" fill="none" xmlns="http://www.w3.org/2000/svg">
<path fill-rule="evenodd" clip-rule="evenodd" d="M52.5111 0H2.4789C1.3389 0 0.498896 0.560002 0.388896 1.4C0.388896 1.4 0.318895 2.00001 0.558895 2.31001C0.668895 2.45001 0.818897 2.54001 0.998897 2.56001C1.0289 2.56001 1.0489 2.56001 1.0789 2.56001C1.2289 2.56001 1.36889 2.51001 1.48889 2.42001C1.76889 2.20001 1.8189 1.78 1.5989 1.5C1.5089 1.39 1.3989 1.31001 1.2689 1.28001C1.4689 0.960006 1.98889 0.810005 2.48889 0.810005H52.5211C53.0211 0.810005 53.5311 0.960006 53.7411 1.28001C53.6211 1.32001 53.5011 1.39 53.4111 1.5C53.1811 1.79 53.2311 2.20001 53.5211 2.42001C53.6611 2.53001 53.8311 2.58001 54.0011 2.56001C54.1811 2.54001 54.3311 2.45001 54.4411 2.31001C54.6811 2.00001 54.6111 1.41 54.6111 1.4C54.5011 0.560002 53.6611 0 52.5111 0ZM48.3911 3.33H30.2341C30.0141 3.33 29.8341 3.51 29.8341 3.73C29.8341 3.95 30.0141 4.13 30.2341 4.13C30.2341 4.13 48.3911 4.13 48.4011 4.13C48.9011 4.13 49.4111 4.28001 49.6211 4.60001C49.4911 4.64001 49.3811 4.72001 49.2911 4.82001C49.0711 5.10001 49.1211 5.52001 49.4011 5.74001C49.5211 5.83001 49.6611 5.88 49.8011 5.88C50.0011 5.88 50.1911 5.79 50.3211 5.63C50.5611 5.32 50.4911 4.73 50.4911 4.72C50.3811 3.88 49.5411 3.32001 48.3911 3.32001V3.33ZM6.6089 4.13H22.5741C22.7941 4.13 22.9741 3.95 22.9741 3.73C22.9741 3.51 22.7941 3.33 22.5741 3.33C22.5741 3.33 6.6089 3.33 6.5989 3.33C5.4589 3.33 4.6189 3.89 4.5089 4.73C4.5089 4.73 4.4389 5.33001 4.6789 5.64001C4.7889 5.78001 4.9389 5.86001 5.1189 5.89001C5.1489 5.89001 5.16889 5.89001 5.19889 5.89001C5.34889 5.89001 5.4889 5.84 5.6089 5.75C5.8889 5.53 5.9389 5.11 5.7189 4.83C5.6389 4.72 5.5189 4.64 5.3889 4.61C5.5889 4.29 6.1089 4.14001 6.6089 4.14001V4.13ZM32.1741 6.8C32.0941 6.82 31.8741 6.9 31.7141 7.05C31.5741 7.18 31.4741 7.41001 31.4741 7.60001C31.4741 7.96001 31.7741 8.26 32.1341 8.26C32.4641 8.26 32.7441 8.02 32.7841 7.7C32.8941 7.81 32.9841 8.01 32.9341 8.25C32.7541 9.06 31.9641 9.19 31.5141 9.2C30.2841 9.24 29.1441 8.49001 28.1641 6.96001C27.5741 6.04001 27.1141 4.92001 26.7941 3.64001C26.7541 3.46001 26.5941 3.34 26.4041 3.34C26.2141 3.34 26.0641 3.46001 26.0141 3.64001C25.6941 4.92001 25.2341 6.04001 24.6441 6.96001C23.6641 8.50001 22.5941 9.25 21.2941 9.2C20.8341 9.2 20.0441 9.05 19.8641 8.25C19.8141 8.02 19.9041 7.82 20.0241 7.7C20.0741 8.02 20.3441 8.26 20.6741 8.26C21.0341 8.26 21.3341 7.97001 21.3341 7.60001C21.3341 7.41001 21.2341 7.19 21.0941 7.05C20.9341 6.9 20.7241 6.82 20.6341 6.8C20.2441 6.69 19.8141 6.80001 19.4941 7.10001C19.1341 7.43001 18.9841 7.94001 19.0841 8.42001C19.2941 9.39001 20.1141 9.98 21.2741 10C21.3041 10 21.3341 10 21.3541 10C22.8741 10 24.2141 9.12 25.3141 7.38C25.7341 6.71 26.0941 5.96 26.3941 5.12C26.6841 5.95 27.0541 6.71 27.4741 7.38C28.5741 9.12 29.9041 9.99001 31.4341 9.99001C31.4641 9.99001 31.4941 9.99001 31.5141 9.99001C32.6741 9.97001 33.4941 9.37 33.7041 8.41C33.8041 7.93 33.6541 7.42 33.2941 7.09C32.9741 6.79 32.5441 6.68 32.1541 6.79L32.1741 6.8ZM26.4041 9.95C25.4041 9.95 24.5841 10.77 24.5841 11.77C24.5841 12.77 25.4041 13.59 26.4041 13.59C27.4041 13.59 28.2241 12.77 28.2241 11.77C28.2241 10.77 27.4041 9.95 26.4041 9.95ZM26.4041 12.79C25.8441 12.79 25.3841 12.33 25.3841 11.77C25.3841 11.21 25.8441 10.75 26.4041 10.75C26.9641 10.75 27.4241 11.21 27.4241 11.77C27.4241 12.33 26.9641 12.79 26.4041 12.79Z" fill="#BBA360"/>
</svg>
